<svg width="600" height="600" xmlns="http://www.w3.org/2000/svg">

 <g>
  <title>Layer 1</title>
  <rect x="42.92215" y="45" id="svg_1" width="512" rx="50" height="512" fill="#3178c6"/>
  <rect x="42.92215" y="45" id="svg_2" width="512" rx="50" height="512" fill="#3178c6"/>
  <path id="svg_3" fill-rule="evenodd" fill="#fff" d="m359.86115,452.424l0,50.061c8.138,4.172 17.763,7.3 28.875,9.386s22.823,3.129 35.135,3.129c11.999,0 23.397,-1.147 34.196,-3.442c10.799,-2.294 20.268,-6.075 28.406,-11.342c8.138,-5.266 14.581,-12.15 19.328,-20.65s7.121,-19.007 7.121,-31.522c0,-9.074 -1.356,-17.026 -4.069,-23.857s-6.625,-12.906 -11.738,-18.225c-5.112,-5.319 -11.242,-10.091 -18.389,-14.315s-15.207,-8.213 -24.18,-11.967c-6.573,-2.712 -12.468,-5.345 -17.685,-7.9c-5.217,-2.556 -9.651,-5.163 -13.303,-7.822c-3.652,-2.66 -6.469,-5.476 -8.451,-8.448c-1.982,-2.973 -2.974,-6.336 -2.974,-10.091c0,-3.441 0.887,-6.544 2.661,-9.308s4.278,-5.136 7.512,-7.118c3.235,-1.981 7.199,-3.52 11.894,-4.615c4.696,-1.095 9.912,-1.642 15.651,-1.642c4.173,0 8.581,0.313 13.224,0.938c4.643,0.626 9.312,1.591 14.008,2.894c4.695,1.304 9.259,2.947 13.694,4.928c4.434,1.982 8.529,4.276 12.285,6.884l0,-46.776c-7.616,-2.92 -15.937,-5.084 -24.962,-6.492s-19.381,-2.112 -31.066,-2.112c-11.895,0 -23.163,1.278 -33.805,3.833s-20.006,6.544 -28.093,11.967c-8.086,5.424 -14.476,12.333 -19.171,20.729c-4.695,8.395 -7.043,18.433 -7.043,30.114c0,14.914 4.304,27.638 12.912,38.172c8.607,10.533 21.675,19.45 39.204,26.751c6.886,2.816 13.303,5.579 19.25,8.291s11.086,5.528 15.415,8.448c4.33,2.92 7.747,6.101 10.252,9.543c2.504,3.441 3.756,7.352 3.756,11.733c0,3.233 -0.783,6.231 -2.348,8.995s-3.939,5.162 -7.121,7.196s-7.147,3.624 -11.894,4.771c-4.748,1.148 -10.303,1.721 -16.668,1.721c-10.851,0 -21.597,-1.903 -32.24,-5.71c-10.642,-3.806 -20.502,-9.516 -29.579,-17.13zm-84.159,-123.342l64.22,0l0,-41.082l-179,0l0,41.082l63.906,0l0,182.918l50.874,0l0,-182.918z" clip-rule="evenodd"/>
 </g>
</svg>